# xmcd
#
# Track frame offsets: 
#        150
#        28576
#        43325
#        79591
#        101541
#        120112
#        141367
#        157456
#        176133
#
# Disc length: 2577 seconds
#
# Revision: 2
# Processed by: cddbd v1.5.2PL0 Copyright (c) Steve Scherf et al.
# Submitted via: ExactAudioCopy v1.0b3
#
DISCID=770a0f09
DTITLE=羅大佑 - 羅大佑和他上個世紀的情歌
DYEAR=2002
DGENRE=Pop
TTITLE0=鄉愁四韻
TTITLE1=牧童
TTITLE2=吾鄉印象
TTITLE3=我所不能瞭解的事
TTITLE4=黃色臉孔
TTITLE5=傳說
TTITLE6=歌
TTITLE7=彈唱詞
TTITLE8=往事2000
EXTD=
EXTT0=
EXTT1=
EXTT2=
EXTT3=
EXTT4=
EXTT5=
EXTT6=
EXTT7=
EXTT8=
PLAYORDER=
